Coordinates
version=1
nRows=7
nColumns=42
inDegrees=yes

Units are S.I. units (second, meters, Newtons, ...)
If the header above contains a line with 'inDegrees', this indicates whether rotational values are in degrees (yes) or radians (no).

endheader
time	pelvis_tilt	pelvis_list	pelvis_rotation	pelvis_tx	pelvis_ty	pelvis_tz	hip_flexion_r	hip_adduction_r	hip_rotation_r	knee_angle_r	knee_adduction_r	knee_angle_r_beta	ankle_angle_r	subtalar_angle_r	mtp_angle_r	hip_flexion_l	hip_adduction_l	hip_rotation_l	knee_angle_l	knee_adduction_l	knee_angle_l_beta	ankle_angle_l	subtalar_angle_l	mtp_angle_l	lumbar_extension	lumbar_bending	lumbar_rotation	arm_flex_r	arm_add_r	arm_rot_r	elbow_flex_r	pro_sup_r	wrist_flex_r	wrist_dev_r	arm_flex_l	arm_add_l	arm_rot_l	elbow_flex_l	pro_sup_l	wrist_flex_l	wrist_dev_l
      0.30000000	     15.72893040	      1.04563592	     -0.39927055	     -0.90724478	      0.99331801	     -0.14928322	      5.41469578	     -2.26116757	     -2.82176262	     39.94545518	      3.78203103	      0.69717971	      4.49729475	     -8.95008857	     -9.71020778	    -21.08974769	      3.69504519	     -5.25492465	      3.33141257	      1.71406874	      0.05814412	      8.02834092	     15.00724584	     -9.71020778	    -34.13084879	      0.00817238	      3.87605494	     -5.95854221	    -22.39812466	     -6.87531228	     71.22887589	     90.00000001	      0.00000000	      0.00000000	      3.97293308	    -20.79900022	      5.78174846	     66.27593729	     90.00000001	      0.00000000	      0.00000000
      0.31000000	     15.67722688	      1.31532995	     -0.11100065	     -0.89460281	      0.99137214	     -0.14977428	      6.23524721	     -2.49015413	     -3.43178451	     36.94823519	      3.54408461	      0.64486836	      4.32225638	     -8.78069149	     -9.61986808	    -21.97069909	      3.88479477	     -5.43658524	      3.13846822	      1.73114707	      0.05477660	      8.77410722	     16.00371220	     -9.61986808	    -34.07718394	     -0.06672804	      3.64819158	     -6.35053870	    -22.39184184	     -7.32184152	     71.19731210	     90.00000001	      0.00000000	      0.00000000	      4.76832257	    -21.23765687	      6.24441088	     66.93334736	     90.00000001	      0.00000000	      0.00000000
      0.32000000	     15.67326572	      1.55461771	      0.11181823	     -0.88193306	      0.98930253	     -0.14999969	      6.91281993	     -2.62403404	     -4.31718718	     33.77708530	      3.02739885	      0.58952135	      4.06826999	     -8.01871808	     -9.53029915	    -22.88713652	      4.01660462	     -5.49338221	      2.99583799	      1.82647926	      0.05228724	      9.51325356	     16.60385095	     -9.53029915	    -34.09020896	     -0.16016819	      3.51699161	     -6.73962994	    -22.29602624	     -7.88341249	     71.18557653	     90.00000001	      0.00000000	      0.00000000	      5.62351845	    -21.64330206	      6.72636764	     67.49555227	     90.00000001	      0.00000000	      0.00000000
      0.33000000	     15.66835010	      1.83549668	      0.34907696	     -0.86930176	      0.98701640	     -0.15023115	      7.52178944	     -2.78365789	     -5.59058485	     30.53939146	      2.30088852	      0.53301293	      3.86455728	     -6.71965754	     -9.44447540	    -23.75845287	      4.19650774	     -5.34061728	      2.93773834	      1.88035345	      0.05127321	     10.26204238	     16.97971835	     -9.44447540	    -34.11706792	     -0.28109724	      3.36366524	     -7.08218894	    -22.18534778	     -8.45976911	     71.15330915	     90.00000001	      0.00000000	      0.00000000	      6.52766315	    -22.04771032	      7.30817871	     67.99835948	     90.00000001	      0.00000000	      0.00000000
      0.34000000	     15.61134515	      2.19252683	      0.58152770	     -0.85663863	      0.98447326	     -0.15040389	      8.13947244	     -3.02795189	     -7.09635645	     27.31257906	      1.54232477	      0.47669443	      3.60384339	     -5.08595470	     -9.37827133	    -24.51656899	      4.44646819	     -5.01792994	      2.99970350	      1.92365152	      0.05235470	     11.06969676	     17.18068422	     -9.37827133	    -34.08780192	     -0.48637519	      3.16808706	     -7.37500984	    -22.02353984	     -9.01122466	     71.04263152	     90.00000001	      0.00000000	      0.00000000	      7.45330264	    -22.46500986	      7.94275622	     68.41281550	     90.00000001	      0.00000000	      0.00000000
      0.35000000	     15.55790985	      2.55758138	      0.81249431	     -0.84383401	      0.98176822	     -0.15052580	      8.72584260	     -3.26330679	     -9.05819693	     24.17368259	      0.63681412	      0.42191035	      3.43718661	     -2.63016813	     -9.29609390	    -25.25571258	      4.69978881	     -4.64125349	      3.14686377	      1.96061435	      0.05492313	     11.76419988	     17.18462486	     -9.29609390	    -34.06181680	     -0.69781136	      3.02085146	     -7.75643063	    -21.90202295	     -9.53576744	     70.99723337	     90.00000001	      0.00000000	      0.00000000	      8.39830247	    -22.84479938	      8.61182557	     68.82358828	     90.00000001	      0.00000000	      0.00000000
      0.36000000	     15.44912290	      2.99492851	      1.05879220	     -0.83098956	      0.97888519	     -0.15067370	      9.37046661	     -3.62635280	    -11.23952363	     21.24321778	     -0.14212155	      0.37076409	      3.29071133	      0.34035377	     -9.20252349	    -25.89279887	      5.02042921	     -4.12884812	      3.38075703	      1.97830738	      0.05900534	     12.48027001	     17.04875819	     -9.20252349	    -33.97749573	     -0.96432676	      2.80305925	     -8.07011152	    -21.73480641	    -10.02083042	     70.90902503	     90.00000001	      0.00000000	      0.00000000	      9.32670065	    -23.21915259	      9.29541684	     69.17457807	     90.00000001	      0.00000000	      0.00000000
